<?xml version="1.0" encoding="UTF-8"?>
<svg xmlns="http://www.w3.org/2000/svg" xmlns:xlink="http://www.w3.org/1999/xlink" focusable="true" height="615.0" id="workspace" preserveAspectRatio="xMinYMin" viewBox="-866.0 -399.0 1601.0 615.0" width="1601.0">
<path stroke="#3f96ff" stroke-opacity="1" stroke-width="2px" style="fill:none " visibility="hidden"/>
<path d="M390,-4 L384.83076923076925,-0.953846153846154M390,-4 L386.95384615384614,-9.169230769230769" stroke="#9b74e6" stroke-opacity="1" stroke-width="2px" visibility="visible"/>
<rect fill="#CC0033" fill-opacity="0.4" height="36" rx="0" ry="0" stroke="#FF9933" stroke-opacity="0.4" stroke-width="1px" visibility="hidden" width="89" x="398" y="-203"/>
<path d="M543,-133 C524,-145 505,-157 486,-169" fill-opacity="0.4" stroke="#CC0033" stroke-opacity="0.4" stroke-width="1px" style="fill:none " visibility="hidden"/>
<path d="M88,0 C58.66666666666667,0 29.333333333333332,0 0,0" fill-opacity="0.4" stroke="#CC0033" stroke-opacity="0.4" stroke-width="1px" style="fill:none " visibility="hidden"/>
<path stroke="#3f96ff" stroke-opacity="1" stroke-width="2px" style="fill:none " visibility="hidden"/>
<path d="M379,-213 L374.03248785707,-209.6349111289829M379,-213 L375.63491112898294,-217.96751214293" stroke="#9b74e6" stroke-opacity="1" stroke-width="2px" visibility="visible"/>
<path d="M461,-300 C471,-300 481,-325 491,-325" fill="#495879" fill-opacity="1" stroke="#495879" stroke-opacity="1" stroke-width="1px" style="fill:none " visibility="visible"/>
<path stroke="#3f96ff" stroke-opacity="1" stroke-width="2px" style="fill:none " visibility="hidden"/>
<path d="M368,-295 L366.1886497718336,-289.27994664789554M368,-295 L362.27994664789554,-296.8113502281664" stroke="#9b74e6" stroke-opacity="1" stroke-width="2px" visibility="visible"/>
<path d="M127,134 C99.33333333333333,98.66666666666666 71.66666666666667,63.333333333333336 44,28" stroke="#3f96ff" stroke-opacity="1" stroke-width="2px" style="fill:none " visibility="hidden"/>
<path d="M127,134 L121.04394020548298,133.27518849061434M127,134 L127.72481150938567,128.04394020548298" stroke="#9b74e6" stroke-opacity="1" stroke-width="2px" visibility="visible"/>
<path d="M-169,130 C-129.66666666666666,96 -90.33333333333334,62.00000000000001 -51,28" stroke="#3f96ff" stroke-opacity="1" stroke-width="2px" style="fill:none " visibility="hidden"/>
<path d="M-169,130 L-168.56478582532708,124.01580509824724M-169,130 L-163.01580509824723,130.43521417467292" stroke="#9b74e6" stroke-opacity="1" stroke-width="2px" visibility="visible"/>
<path d="M-622,-88 C-557.6666666666666,-87 -493.3333333333333,-88 -429,-88" stroke="#3f96ff" stroke-opacity="1" stroke-width="2px" style="fill:none " visibility="hidden"/>
<path d="M-663,-113 L-658.1080367841736,-116.47400286341295M-663,-113 L-659.5259971365871,-108.10803678417359" stroke="#9b74e6" stroke-opacity="1" stroke-width="2px" visibility="visible"/>
<path d="M-429,-88 C-421.3333333333333,-86.66666666666666 -413.6666666666667,-85.33333333333334 -406,-84" stroke="#3f96ff" stroke-opacity="1" stroke-width="2px" style="fill:none " visibility="hidden"/>
<path d="M-459,-95 L-454.30703701466524,-98.738462039165M-459,-95 L-455.261537960835,-90.30703701466523" stroke="#9b74e6" stroke-opacity="1" stroke-width="2px" visibility="visible"/>
<path d="M-305,-99 C-280.3333333333333,-105 -255.66666666666666,-111 -231,-117" stroke="#3f96ff" stroke-opacity="1" stroke-width="2px" style="fill:none " visibility="hidden"/>
<path d="M-308,-101 L-304.72239331671847,-106.02566358103168M-308,-101 L-302.97433641896833,-97.72239331671847" stroke="#9b74e6" stroke-opacity="1" stroke-width="2px" visibility="visible"/>
<path d="M-576,-245 C-522.6666666666666,-229.33333333333331 -469.3333333333333,-213.66666666666666 -416,-198" stroke="#3f96ff" stroke-opacity="1" stroke-width="2px" style="fill:none " visibility="hidden"/>
<path d="M-625,-243 L-620.1242634505811,-246.4967403536237M-625,-243 L-621.5032596463764,-238.12426345058105" stroke="#9b74e6" stroke-opacity="1" stroke-width="2px" visibility="visible"/>
<path d="M-584,-278 C-526,-298.3333333333333 -468,-318.6666666666667 -410,-339" stroke="#3f96ff" stroke-opacity="1" stroke-width="2px" style="fill:none " visibility="hidden"/>
<path d="M-625,-276 L-622.0476564599926,-281.2233770323208M-625,-276 L-619.7766229676791,-273.0476564599926" stroke="#9b74e6" stroke-opacity="1" stroke-width="2px" visibility="visible"/>
<path d="M-410,-287 C-399.6666666666667,-284.3333333333333 -389.3333333333333,-281.6666666666667 -379,-279" stroke="#3f96ff" stroke-opacity="1" stroke-width="2px" style="fill:none " visibility="hidden"/>
<path d="M-410,-287 L-404.8318045796972,-290.04791011966574M-410,-287 L-406.95208988033426,-281.8318045796972" stroke="#9b74e6" stroke-opacity="1" stroke-width="2px" visibility="visible"/>
<path d="M-416,-238 C-403.6666666666667,-240.66666666666666 -391.3333333333333,-243.33333333333334 -379,-246" stroke="#3f96ff" stroke-opacity="1" stroke-width="2px" style="fill:none " visibility="hidden"/>
<path d="M-416,-238 L-412.74979199763794,-243.0434262105618M-416,-238 L-410.9565737894382,-234.74979199763794" stroke="#9b74e6" stroke-opacity="1" stroke-width="2px" visibility="visible"/>
<path d="M-314,-170 C-286,-164 -258,-158 -230,-152" stroke="#3f96ff" stroke-opacity="1" stroke-width="2px" style="fill:none " visibility="hidden"/>
<path d="M-322,-246 L-316.0691534732895,-246.90832784643314M-322,-246 L-321.09167215356683,-240.06915347328948" stroke="#9b74e6" stroke-opacity="1" stroke-width="2px" visibility="visible"/>
<path stroke="#3f96ff" stroke-opacity="1" stroke-width="2px" style="fill:none " visibility="hidden"/>
<path d="M-154,-117 L-148.0158871965635,-117.4363415585839M-154,-117 L-153.5636584414161,-111.01588719656351" stroke="#9b74e6" stroke-opacity="1" stroke-width="2px" visibility="visible"/>
<path stroke="#3f96ff" stroke-opacity="1" stroke-width="2px" style="fill:none " visibility="hidden"/>
<path d="M386,-72 L382.44754139623586,-67.16470912265436M386,-72 L381.16470912265436,-75.55245860376415" stroke="#9b74e6" stroke-opacity="1" stroke-width="2px" visibility="visible"/>
<path stroke="#3f96ff" stroke-opacity="1" stroke-width="2px" style="fill:none " visibility="hidden"/>
<path d="M239,-59 L233.05374331363168,-58.19873136850356M239,-59 L238.19873136850356,-64.94625668636832" stroke="#9b74e6" stroke-opacity="1" stroke-width="2px" visibility="visible"/>
<path stroke="#3f96ff" stroke-opacity="1" stroke-width="2px" style="fill:none " visibility="hidden"/>
<path d="M240,-223 L239.40689271381018,-217.02938665235567M240,-223 L234.02938665235567,-223.59310728618982" stroke="#9b74e6" stroke-opacity="1" stroke-width="2px" visibility="visible"/>
<path stroke="#3f96ff" stroke-opacity="1" stroke-width="2px" style="fill:none " visibility="hidden"/>
<path d="M125,-120 L125.53045903257728,-114.02349489962928M125,-120 L119.02349489962928,-119.46954096742272" stroke="#9b74e6" stroke-opacity="1" stroke-width="2px" visibility="visible"/>
<path d="M484,28 C494,28 505,-3 515,-3" fill="#495879" fill-opacity="1" stroke="#495879" stroke-opacity="1" stroke-width="1px" style="fill:none " visibility="visible"/>
<path d="M499,-77 C509,-77 519,-107 529,-107" fill="#495879" fill-opacity="1" stroke="#495879" stroke-opacity="1" stroke-width="1px" style="fill:none " visibility="visible"/>
<path d="M471,-188 C481,-188 492,-214 502,-214" fill="#495879" fill-opacity="1" stroke="#495879" stroke-opacity="1" stroke-width="1px" style="fill:none " visibility="visible"/>
<g focusable="true" height="100" preserveAspectRatio="none" transform="translate(-51,-23) scale(1,1)" visibility="visible" width="100">
<rect fill="rgb(252,235,192)" fill-opacity="0" height="52" rx="7.8" ry="7.8" stroke="rgb(241,163,39)" stroke-opacity="0" stroke-width="1px" style="cursor: default;" width="106" x="-2" y="-3"/>
<rect fill="rgb(80,157,192)" height="46" rx="6.8999999999999995" ry="6.8999999999999995" stroke="rgb(57,113,177)" stroke-width="2px" style="cursor: default;" width="102" x="0" y="0"/>
<text fill="#ffffff" font-family="verdana" font-size="20.15625" font-style="normal" font-weight="bold" style="cursor: default;" visibility="visible" x="11" y="11">
<tspan dy="1em" x="11">Boucles</tspan>
</text>
<g focusable="true" height="24" preserveAspectRatio="none" transform="translate(011) scale(00.24)" width="0"/>
</g>
<g focusable="true" height="100" preserveAspectRatio="none" transform="translate(-263,-147) scale(1,1)" visibility="visible" width="100">
<rect fill="rgb(252,235,192)" fill-opacity="0" height="31" rx="4.6499999999999995" ry="4.6499999999999995" stroke="rgb(241,163,39)" stroke-opacity="0" stroke-width="1px" style="cursor: move;" width="190" x="-2" y="-3"/>
<line stroke="#495879" stroke-opacity="1" stroke-width="1px" style="cursor: move;" x1="0" x2="186" y1="25" y2="25"/>
<text fill="#ff0000" font-family="verdana" font-size="13.4375" font-style="normal" font-weight="normal" style="cursor: move;" visibility="visible" x="4" y="4">
<tspan dy="1em" x="4">Pour parcourir des entiers</tspan>
</text>
<ellipse cx="-3" cy="25" fill="rgb(224,229,239)" height="6" rx="3" ry="3" stroke="rgb(2,59,185)" stroke-width="1px" style="cursor: default;" visibility="hidden" width="6"/>
<g focusable="true" height="17" preserveAspectRatio="none" transform="translate(04) scale(00.17)" width="0"/>
</g>
<g focusable="true" height="100" preserveAspectRatio="none" transform="translate(-4,-150) scale(1,1)" visibility="visible" width="100">
<rect fill="rgb(252,235,192)" fill-opacity="0" height="31" rx="4.6499999999999995" ry="4.6499999999999995" stroke="rgb(241,163,39)" stroke-opacity="0" stroke-width="1px" style="cursor: move;" width="285" x="-2" y="-3"/>
<line stroke="#495879" stroke-opacity="1" stroke-width="1px" style="cursor: move;" x1="0" x2="281" y1="25" y2="25"/>
<text fill="#023bb9" font-family="verdana" font-size="13.4375" font-style="normal" font-weight="normal" style="cursor: move;" visibility="visible" x="4" y="4">
<tspan dy="1em" x="4">Pour parcourir une chaîne de caractères</tspan>
</text>
<ellipse cx="284" cy="25" fill="rgb(224,229,239)" height="6" rx="3" ry="3" stroke="rgb(2,59,185)" stroke-width="1px" style="cursor: default;" visibility="hidden" width="6"/>
<g focusable="true" height="17" preserveAspectRatio="none" transform="translate(04) scale(00.17)" width="0"/>
</g>
<g focusable="true" height="100" preserveAspectRatio="none" transform="translate(192,-249) scale(1,1)" visibility="visible" width="100">
<rect fill="rgb(252,235,192)" fill-opacity="0" height="27" rx="4.05" ry="4.05" stroke="rgb(241,163,39)" stroke-opacity="0" stroke-width="1px" style="cursor: move;" width="139" x="-2" y="-3"/>
<line stroke="#495879" stroke-opacity="1" stroke-width="1px" style="cursor: move;" visibility="visible" x1="0" x2="135" y1="21" y2="21"/>
<text fill="#023bb9" font-family="verdana" font-size="10.75" font-style="normal" font-weight="normal" style="cursor: move;" visibility="visible" x="4" y="4">
<tspan dy="1em" x="4">Caractère par caractère</tspan>
</text>
<ellipse cx="138" cy="21" fill="rgb(224,229,239)" height="6" rx="3" ry="3" stroke="rgb(2,59,185)" stroke-width="1px" style="cursor: default;" visibility="hidden" width="6"/>
<g focusable="true" height="13" preserveAspectRatio="none" transform="translate(04) scale(00.13)" width="0"/>
</g>
<g focusable="true" height="100" preserveAspectRatio="none" transform="translate(221,-54) scale(1,1)" visibility="visible" width="100">
<rect fill="rgb(252,235,192)" fill-opacity="0" height="28" rx="4.2" ry="4.2" stroke="rgb(241,163,39)" stroke-opacity="0" stroke-width="1px" style="cursor: move;" width="84" x="-2" y="-3"/>
<line stroke="#495879" stroke-opacity="1" stroke-width="1px" style="cursor: move;" x1="0" x2="80" y1="22" y2="22"/>
<text fill="#0000ff" font-family="times" font-size="13.4375" font-style="normal" font-weight="normal" style="cursor: move;" visibility="visible" x="4" y="4">
<tspan dy="1em" x="4">Par les index</tspan>
</text>
<ellipse cx="83" cy="22" fill="rgb(224,229,239)" height="6" rx="3" ry="3" stroke="rgb(2,59,185)" stroke-width="1px" style="cursor: default;" visibility="hidden" width="6"/>
<g focusable="true" height="14" preserveAspectRatio="none" transform="translate(04) scale(00.14)" width="0"/>
</g>
<g focusable="true" height="100" preserveAspectRatio="none" transform="translate(386,-99) scale(1,1)" visibility="visible" width="100">
<rect fill="rgb(252,235,192)" fill-opacity="0" height="28" rx="4.2" ry="4.2" stroke="rgb(241,163,39)" stroke-opacity="0" stroke-width="1px" style="cursor: move;" width="115" x="-2" y="-3"/>
<line stroke="#495879" stroke-opacity="1" stroke-width="1px" style="cursor: move;" x1="0" x2="111" y1="22" y2="22"/>
<text fill="#0000ff" font-family="times" font-size="13.4375" font-style="normal" font-weight="normal" style="cursor: move;" visibility="visible" x="4" y="4">
<tspan dy="1em" x="4">récupérer un index</tspan>
</text>
<ellipse cx="114" cy="22" fill="rgb(224,229,239)" height="6" rx="3" ry="3" stroke="rgb(2,59,185)" stroke-width="1px" style="cursor: default;" visibility="visible" width="6"/>
<g focusable="true" height="14" preserveAspectRatio="none" transform="translate(04) scale(00.14)" width="0"/>
</g>
<g focusable="true" height="100" preserveAspectRatio="none" transform="translate(364,-335) scale(1,1)" visibility="visible" width="100">
<rect fill="rgb(252,235,192)" fill-opacity="0" height="41" rx="6.1499999999999995" ry="6.1499999999999995" stroke="rgb(241,163,39)" stroke-opacity="0" stroke-width="1px" style="cursor: move;" width="99" x="-2" y="-3"/>
<line stroke="#495879" stroke-opacity="1" stroke-width="1px" style="cursor: move;" x1="0" x2="95" y1="35" y2="35"/>
<text fill="#0000ff" font-family="times" font-size="13.4375" font-style="normal" font-weight="normal" style="cursor: move;" visibility="visible" x="4" y="4">
<tspan dy="1em" x="4">Créer une </tspan>
<tspan dy="1em" x="4">nouvelle chaîne</tspan>
</text>
<ellipse cx="98" cy="35" fill="rgb(224,229,239)" height="6" rx="3" ry="3" stroke="rgb(2,59,185)" stroke-width="1px" style="cursor: default;" visibility="visible" width="6"/>
<g focusable="true" height="14" preserveAspectRatio="none" transform="translate(04) scale(00.14)" width="0"/>
</g>
<g focusable="true" height="100" preserveAspectRatio="none" transform="translate(384,-220) scale(1,1)" visibility="visible" width="100">
<rect fill="rgb(252,235,192)" fill-opacity="0" height="38" rx="5.7" ry="5.7" stroke="rgb(241,163,39)" stroke-opacity="0" stroke-width="1px" style="cursor: move;" width="89" x="-2" y="-3"/>
<line stroke="#495879" stroke-opacity="1" stroke-width="1px" style="cursor: move;" x1="0" x2="85" y1="32" y2="32"/>
<text fill="#023bb9" font-family="verdana" font-size="10.75" font-style="normal" font-weight="normal" style="cursor: move;" visibility="visible" x="4" y="4">
<tspan dy="1em" x="4">Compter</tspan>
<tspan dy="1em" x="4">quelque chose</tspan>
</text>
<ellipse cx="88" cy="32" fill="rgb(224,229,239)" height="6" rx="3" ry="3" stroke="rgb(2,59,185)" stroke-width="1px" style="cursor: default;" visibility="visible" width="6"/>
<g focusable="true" height="12" preserveAspectRatio="none" transform="translate(04) scale(00.12)" width="0"/>
</g>
<g focusable="true" height="100" preserveAspectRatio="none" transform="translate(395,-7) scale(1,1)" visibility="visible" width="100">
<rect fill="rgb(252,235,192)" fill-opacity="0" height="41" rx="6.1499999999999995" ry="6.1499999999999995" stroke="rgb(241,163,39)" stroke-opacity="0" stroke-width="1px" style="cursor: move;" width="92" x="-2" y="-3"/>
<line stroke="#495879" stroke-opacity="1" stroke-width="1px" style="cursor: move;" visibility="visible" x1="0" x2="88" y1="35" y2="35"/>
<text fill="#0000ff" font-family="times" font-size="13.4375" font-style="normal" font-weight="normal" style="cursor: move;" visibility="visible" x="4" y="4">
<tspan dy="1em" x="4">récupérer une </tspan>
<tspan dy="1em" x="4">liste d'index</tspan>
</text>
<ellipse cx="91" cy="35" fill="rgb(224,229,239)" height="6" rx="3" ry="3" stroke="rgb(2,59,185)" stroke-width="1px" style="cursor: default;" visibility="visible" width="6"/>
<g focusable="true" height="14" preserveAspectRatio="none" transform="translate(04) scale(00.14)" width="0"/>
</g>
<g focusable="true" height="100" preserveAspectRatio="none" transform="translate(489,-349) scale(1,1)" visibility="visible" width="100">
<rect fill="rgb(252,235,192)" fill-opacity="0" height="55" rx="8.25" ry="8.25" stroke="rgb(241,163,39)" stroke-opacity="0" stroke-width="1px" style="cursor: move;" width="109" x="-2" y="-3"/>
<rect fill="#feffff" height="49" rx="0" ry="0" stroke="#feffff" stroke-width="2px" style="cursor: move;" visibility="visible" width="105" x="0" y="0"/>
<text fill="#0000ff" font-family="times" font-size="13.4375" font-style="normal" font-weight="normal" style="cursor: move;" visibility="visible" x="4" y="4">
<tspan dy="1em" x="4">resultat = ""</tspan>
<tspan dy="1em" x="4">for car in chaine :</tspan>
<tspan dy="1em" x="4">      resultat += ...</tspan>
</text>
<ellipse cx="3" cy="3" fill="#feffff" height="6" rx="3" ry="3" stroke="#feffff" stroke-width="1px" style="cursor: default;" visibility="hidden" width="6"/>
<g focusable="true" height="14" preserveAspectRatio="none" transform="translate(04) scale(00.14)" width="0"/>
</g>
<g focusable="true" height="100" preserveAspectRatio="none" transform="translate(500,-239) scale(1,1)" visibility="visible" width="100">
<rect fill="rgb(252,235,192)" fill-opacity="0" height="57" rx="8.549999999999999" ry="8.549999999999999" stroke="rgb(241,163,39)" stroke-opacity="0" stroke-width="1px" style="cursor: move;" width="106" x="-2" y="-3"/>
<rect fill="#feffff" height="51" rx="0" ry="0" stroke="#feffff" stroke-width="2px" style="cursor: move;" visibility="visible" width="102" x="0" y="0"/>
<text fill="#023bb9" font-family="verdana" font-size="10.75" font-style="normal" font-weight="normal" style="cursor: move;" visibility="visible" x="3" y="3">
<tspan dy="1em" x="3">nb = 0</tspan>
<tspan dy="1em" x="3">for car in chaine :</tspan>
<tspan dy="1em" x="3">      if ... :</tspan>
<tspan dy="1em" x="3">          nb += 1</tspan>
</text>
<ellipse cx="3" cy="3" fill="#feffff" height="6" rx="3" ry="3" stroke="#feffff" stroke-width="1px" style="cursor: default;" visibility="hidden" width="6"/>
<g focusable="true" height="11" preserveAspectRatio="none" transform="translate(03) scale(00.11)" width="0"/>
</g>
<ellipse cx="8" cy="8" fill="gray" height="6" rx="3" ry="3" stroke="#6589de" stroke-width="1px" style="cursor: pointer;" visibility="hidden" width="6"/>
<ellipse cx="8" cy="8" fill="gray" height="6" rx="3" ry="3" stroke="#6589de" stroke-width="1px" style="cursor: pointer;" visibility="hidden" width="6"/>
<line fill-opacity="0.3" stroke="#6589de" stroke-opacity="0.3" stroke-width="1px"/>
<line fill-opacity="0.3" stroke="#6589de" stroke-opacity="0.3" stroke-width="1px"/>
<ellipse cx="8" cy="8" fill="gray" height="6" rx="3" ry="3" stroke="#6589de" stroke-width="1px" style="cursor: pointer;" visibility="hidden" width="6"/>
<ellipse cx="8" cy="8" fill="gray" height="6" rx="3" ry="3" stroke="#6589de" stroke-width="1px" style="cursor: pointer;" visibility="hidden" width="6"/>
<line fill-opacity="0.3" stroke="#6589de" stroke-opacity="0.3" stroke-width="1px"/>
<line fill-opacity="0.3" stroke="#6589de" stroke-opacity="0.3" stroke-width="1px"/>
<ellipse cx="8" cy="8" fill="gray" height="6" rx="3" ry="3" stroke="#6589de" stroke-width="1px" style="cursor: pointer;" visibility="hidden" width="6"/>
<ellipse cx="8" cy="8" fill="gray" height="6" rx="3" ry="3" stroke="#6589de" stroke-width="1px" style="cursor: pointer;" visibility="hidden" width="6"/>
<line fill-opacity="0.3" stroke="#6589de" stroke-opacity="0.3" stroke-width="1px"/>
<line fill-opacity="0.3" stroke="#6589de" stroke-opacity="0.3" stroke-width="1px"/>
<ellipse cx="8" cy="8" fill="gray" height="6" rx="3" ry="3" stroke="#6589de" stroke-width="1px" style="cursor: pointer;" visibility="hidden" width="6"/>
<ellipse cx="8" cy="8" fill="gray" height="6" rx="3" ry="3" stroke="#6589de" stroke-width="1px" style="cursor: pointer;" visibility="hidden" width="6"/>
<line fill-opacity="0.3" stroke="#6589de" stroke-opacity="0.3" stroke-width="1px"/>
<line fill-opacity="0.3" stroke="#6589de" stroke-opacity="0.3" stroke-width="1px"/>
<ellipse cx="8" cy="8" fill="gray" height="6" rx="3" ry="3" stroke="#6589de" stroke-width="1px" style="cursor: pointer;" visibility="hidden" width="6"/>
<ellipse cx="8" cy="8" fill="gray" height="6" rx="3" ry="3" stroke="#6589de" stroke-width="1px" style="cursor: pointer;" visibility="hidden" width="6"/>
<line fill-opacity="0.3" stroke="#6589de" stroke-opacity="0.3" stroke-width="1px"/>
<line fill-opacity="0.3" stroke="#6589de" stroke-opacity="0.3" stroke-width="1px"/>
<ellipse cx="8" cy="8" fill="gray" height="6" rx="3" ry="3" stroke="#6589de" stroke-width="1px" style="cursor: pointer;" visibility="hidden" width="6"/>
<ellipse cx="8" cy="8" fill="gray" height="6" rx="3" ry="3" stroke="#6589de" stroke-width="1px" style="cursor: pointer;" visibility="hidden" width="6"/>
<line fill-opacity="0.3" stroke="#6589de" stroke-opacity="0.3" stroke-width="1px"/>
<line fill-opacity="0.3" stroke="#6589de" stroke-opacity="0.3" stroke-width="1px"/>
<ellipse cx="8" cy="8" fill="gray" height="6" rx="3" ry="3" stroke="#6589de" stroke-width="1px" style="cursor: pointer;" visibility="hidden" width="6"/>
<ellipse cx="8" cy="8" fill="gray" height="6" rx="3" ry="3" stroke="#6589de" stroke-width="1px" style="cursor: pointer;" visibility="hidden" width="6"/>
<line fill-opacity="0.3" stroke="#6589de" stroke-opacity="0.3" stroke-width="1px"/>
<line fill-opacity="0.3" stroke="#6589de" stroke-opacity="0.3" stroke-width="1px"/>
<ellipse cx="8" cy="8" fill="gray" height="6" rx="3" ry="3" stroke="#6589de" stroke-width="1px" style="cursor: pointer;" visibility="hidden" width="6"/>
<ellipse cx="8" cy="8" fill="gray" height="6" rx="3" ry="3" stroke="#6589de" stroke-width="1px" style="cursor: pointer;" visibility="hidden" width="6"/>
<line fill-opacity="0.3" stroke="#6589de" stroke-opacity="0.3" stroke-width="1px"/>
<line fill-opacity="0.3" stroke="#6589de" stroke-opacity="0.3" stroke-width="1px"/>
<g focusable="true" height="100" preserveAspectRatio="none" transform="translate(527,-137) scale(1,1)" visibility="visible" width="100">
<rect fill="rgb(252,235,192)" fill-opacity="0" height="66" rx="9.9" ry="9.9" stroke="rgb(241,163,39)" stroke-opacity="0" stroke-width="1px" style="cursor: move;" width="158" x="-2" y="-3"/>
<rect fill="#feffff" height="60" rx="0" ry="0" stroke="#feffff" stroke-width="2px" style="cursor: move;" visibility="visible" width="154" x="0" y="0"/>
<text fill="#0000ff" font-family="times" font-size="13.4375" font-style="normal" font-weight="normal" style="cursor: move;" visibility="visible" x="3" y="3">
<tspan dy="1em" x="3">indexCherche = None</tspan>
<tspan dy="1em" x="3">for i in range(len(chaine)) :</tspan>
<tspan dy="1em" x="3">      if ... :</tspan>
<tspan dy="1em" x="3">           indexCherche = i</tspan>
</text>
<g focusable="true" height="14" preserveAspectRatio="none" transform="translate(03) scale(00.14)" width="0"/>
<ellipse cx="3" cy="3" fill="#feffff" height="6" rx="3" ry="3" stroke="#feffff" stroke-width="1px" style="cursor: default;" visibility="hidden" width="6"/>
</g>
<g focusable="true" height="100" preserveAspectRatio="none" transform="translate(513,-33) scale(1,1)" visibility="visible" width="100">
<rect fill="rgb(252,235,192)" fill-opacity="0" height="66" rx="9.9" ry="9.9" stroke="rgb(241,163,39)" stroke-opacity="0" stroke-width="1px" style="cursor: move;" width="158" x="-2" y="-3"/>
<rect fill="#feffff" height="60" rx="0" ry="0" stroke="#feffff" stroke-width="2px" style="cursor: move;" width="154" x="0" y="0"/>
<text fill="#0000ff" font-family="times" font-size="13.4375" font-style="normal" font-weight="normal" style="cursor: move;" visibility="visible" x="3" y="3">
<tspan dy="1em" x="3">lst = []</tspan>
<tspan dy="1em" x="3">for i in range(len(chaine)) :</tspan>
<tspan dy="1em" x="3">      if ... :</tspan>
<tspan dy="1em" x="3">           lst.append(i)</tspan>
</text>
<g focusable="true" height="14" preserveAspectRatio="none" transform="translate(03) scale(00.14)" width="0"/>
<ellipse cx="3" cy="3" fill="#feffff" height="6" rx="3" ry="3" stroke="#feffff" stroke-width="1px" style="cursor: default;" visibility="hidden" width="6"/>
</g>
<path d="M125,-120 C99.33333333333334,-89.33333333333334 73.66666666666666,-58.66666666666666 48,-28" fill="#495879" fill-opacity="1" stroke="#9b74e6" stroke-dasharray="4,2" stroke-opacity="1" stroke-width="2px" style="fill: none; cursor: pointer;" visibility="visible"/>
<path d="M240,-223 C212.33333333333334,-200.33333333333334 184.66666666666666,-177.66666666666666 157,-155" fill="#495879" fill-opacity="1" stroke="#9b74e6" stroke-dasharray="4,2" stroke-opacity="1" stroke-width="2px" style="fill: none; cursor: pointer;" visibility="visible"/>
<path d="M239,-59 C212.33333333333331,-79.33333333333334 185.66666666666669,-99.66666666666666 159,-120" fill="#495879" fill-opacity="1" stroke="#9b74e6" stroke-dasharray="4,2" stroke-opacity="1" stroke-width="2px" style="fill: none; cursor: pointer;" visibility="visible"/>
<path d="M386,-72 C357.6666666666667,-67.66666666666667 329.3333333333333,-63.33333333333333 301,-59" fill="#495879" fill-opacity="1" stroke="#9b74e6" stroke-dasharray="4,2" stroke-opacity="1" stroke-width="2px" style="fill: none; cursor: pointer;" visibility="visible"/>
<g focusable="true" height="100" preserveAspectRatio="none" transform="translate(-379,-274) scale(1,1)" visibility="visible" width="100">
<rect fill="rgb(252,235,192)" fill-opacity="0" height="29" rx="4.35" ry="4.35" stroke="rgb(241,163,39)" stroke-opacity="0" stroke-width="1px" style="cursor: move;" width="73" x="-2" y="-3"/>
<line stroke="#495879" stroke-opacity="1" stroke-width="1px" style="cursor: move;" visibility="visible" x1="0" x2="69" y1="23" y2="23"/>
<text fill="#ff0000" font-family="verdana" font-size="13.4375" font-style="normal" font-weight="normal" style="cursor: move;" visibility="visible" x="3" y="3">
<tspan dy="1em" x="3">range(n)</tspan>
</text>
<g focusable="true" height="17" preserveAspectRatio="none" transform="translate(03) scale(00.17)" width="0"/>
<ellipse cx="-3" cy="23" fill="rgb(224,229,239)" height="6" rx="3" ry="3" stroke="rgb(2,59,185)" stroke-width="1px" style="cursor: default;" visibility="hidden" width="6"/>
</g>
<path d="M-154,-117 C-119.66666666666666,-87.33333333333333 -85.33333333333334,-57.66666666666667 -51,-28" fill="#495879" fill-opacity="1" stroke="#9b74e6" stroke-dasharray="4,2" stroke-opacity="1" stroke-width="2px" style="fill: none; cursor: pointer;" visibility="visible"/>
<g focusable="true" height="100" preserveAspectRatio="none" transform="translate(-401,-96) scale(1,1)" visibility="visible" width="100">
<rect fill="rgb(252,235,192)" fill-opacity="0" height="31" rx="4.6499999999999995" ry="4.6499999999999995" stroke="rgb(241,163,39)" stroke-opacity="0" stroke-width="1px" style="cursor: move;" width="97" x="-2" y="-3"/>
<line stroke="#495879" stroke-opacity="1" stroke-width="1px" style="cursor: move;" visibility="visible" x1="0" x2="93" y1="25" y2="25"/>
<text fill="#ff0000" font-family="verdana" font-size="13.4375" font-style="normal" font-weight="normal" style="cursor: move;" visibility="visible" x="4" y="4">
<tspan dy="1em" x="4">range(m, n)</tspan>
</text>
<g focusable="true" height="17" preserveAspectRatio="none" transform="translate(04) scale(00.17)" width="0"/>
<ellipse cx="-3" cy="25" fill="rgb(224,229,239)" height="6" rx="3" ry="3" stroke="rgb(2,59,185)" stroke-width="1px" style="cursor: default;" visibility="hidden" width="6"/>
</g>
<line fill-opacity="0.3" stroke="#6589de" stroke-opacity="0.3" stroke-width="1px" visibility="hidden" x1="-322" x2="-276.3333333333333" y1="-246" y2="-214.66666666666666"/>
<line fill-opacity="0.3" stroke="#6589de" stroke-opacity="0.3" stroke-width="1px" visibility="hidden" x1="-194" x2="-233.66666666666669" y1="-152" y2="-183.33333333333334"/>
<ellipse cx="-276.3333333333333" cy="-214.66666666666666" fill="gray" height="6" rx="3" ry="3" stroke="#6589de" stroke-width="1px" style="cursor: pointer;" visibility="hidden" width="6"/>
<ellipse cx="-233.66666666666669" cy="-183.33333333333334" fill="gray" height="6" rx="3" ry="3" stroke="#6589de" stroke-width="1px" style="cursor: pointer;" visibility="hidden" width="6"/>
<line fill-opacity="0.3" stroke="#6589de" stroke-opacity="0.3" stroke-width="1px" visibility="hidden" x1="-308" x2="-279.6666666666667" y1="-101" y2="-106.33333333333333"/>
<line fill-opacity="0.3" stroke="#6589de" stroke-opacity="0.3" stroke-width="1px" visibility="hidden" x1="-232" x2="-254.33333333333331" y1="-117" y2="-111.66666666666667"/>
<ellipse cx="-279.6666666666667" cy="-106.33333333333333" fill="gray" height="6" rx="3" ry="3" stroke="#6589de" stroke-width="1px" style="cursor: pointer;" visibility="hidden" width="6"/>
<ellipse cx="-254.33333333333331" cy="-111.66666666666667" fill="gray" height="6" rx="3" ry="3" stroke="#6589de" stroke-width="1px" style="cursor: pointer;" visibility="hidden" width="6"/>
<path d="M-322,-246 C-279.3333333333333,-214.66666666666666 -236.66666666666669,-183.33333333333334 -194,-152" fill="#495879" fill-opacity="1" stroke="#9b74e6" stroke-dasharray="4,2" stroke-opacity="1" stroke-width="2px" style="fill: none; cursor: pointer;" visibility="visible"/>
<g focusable="true" height="100" preserveAspectRatio="none" transform="translate(-548,-334) scale(1,1)" visibility="visible" width="100">
<rect fill="rgb(252,235,192)" fill-opacity="0" height="44" rx="6.6" ry="6.6" stroke="rgb(241,163,39)" stroke-opacity="0" stroke-width="1px" style="cursor: move;" width="137" x="-2" y="-3"/>
<line stroke="#495879" stroke-opacity="1" stroke-width="1px" style="cursor: move;" visibility="visible" x1="0" x2="133" y1="38" y2="38"/>
<text fill="#ff0000" font-family="verdana" font-size="13.4375" font-style="normal" font-weight="normal" style="cursor: move;" visibility="visible" x="4" y="4">
<tspan dy="1em" x="4">parcourir les</tspan>
<tspan dy="1em" x="4">entiers de 0 à n-1</tspan>
</text>
<g focusable="true" height="15" preserveAspectRatio="none" transform="translate(04) scale(00.15)" width="0"/>
<ellipse cx="-3" cy="38" fill="rgb(224,229,239)" height="6" rx="3" ry="3" stroke="rgb(2,59,185)" stroke-width="1px" style="cursor: default;" visibility="hidden" width="6"/>
</g>
<g focusable="true" height="100" preserveAspectRatio="none" transform="translate(-535,-236) scale(1,1)" visibility="visible" width="100">
<rect fill="rgb(252,235,192)" fill-opacity="0" height="44" rx="6.6" ry="6.6" stroke="rgb(241,163,39)" stroke-opacity="0" stroke-width="1px" style="cursor: move;" width="118" x="-2" y="-3"/>
<line stroke="#495879" stroke-opacity="1" stroke-width="1px" style="cursor: move;" visibility="visible" x1="0" x2="114" y1="38" y2="38"/>
<text fill="#ff0000" font-family="verdana" font-size="13.4375" font-style="normal" font-weight="normal" style="cursor: move;" visibility="visible" x="4" y="4">
<tspan dy="1em" x="4">passer n fois</tspan>
<tspan dy="1em" x="4">dans un boucle</tspan>
</text>
<g focusable="true" height="15" preserveAspectRatio="none" transform="translate(04) scale(00.15)" width="0"/>
<ellipse cx="-3" cy="38" fill="rgb(224,229,239)" height="6" rx="3" ry="3" stroke="rgb(2,59,185)" stroke-width="1px" style="cursor: default;" visibility="hidden" width="6"/>
</g>
<path d="M-416,-238 C-403.6666666666667,-240.66666666666666 -391.3333333333333,-243.33333333333334 -379,-246" fill="#495879" fill-opacity="1" stroke="#9b74e6" stroke-dasharray="4,2" stroke-opacity="1" stroke-width="2px" style="fill: none; cursor: pointer;" visibility="visible"/>
<line fill-opacity="0.3" stroke="#6589de" stroke-opacity="0.3" stroke-width="1px" visibility="hidden" x1="-416" x2="-400.6666666666667" y1="-238" y2="-240.66666666666666"/>
<line fill-opacity="0.3" stroke="#6589de" stroke-opacity="0.3" stroke-width="1px" visibility="hidden" x1="-379" x2="-388.3333333333333" y1="-246" y2="-243.33333333333334"/>
<ellipse cx="-400.6666666666667" cy="-240.66666666666666" fill="gray" height="6" rx="3" ry="3" stroke="#6589de" stroke-width="1px" style="cursor: pointer;" visibility="hidden" width="6"/>
<ellipse cx="-388.3333333333333" cy="-243.33333333333334" fill="gray" height="6" rx="3" ry="3" stroke="#6589de" stroke-width="1px" style="cursor: pointer;" visibility="hidden" width="6"/>
<path d="M-410,-287 C-399.6666666666667,-284.3333333333333 -389.3333333333333,-281.6666666666667 -379,-279" fill="#495879" fill-opacity="1" stroke="#9b74e6" stroke-dasharray="4,2" stroke-opacity="1" stroke-width="2px" style="fill: none; cursor: pointer;" visibility="visible"/>
<line fill-opacity="0.3" stroke="#6589de" stroke-opacity="0.3" stroke-width="1px" visibility="hidden" x1="-410" x2="-396.6666666666667" y1="-287" y2="-284.3333333333333"/>
<line fill-opacity="0.3" stroke="#6589de" stroke-opacity="0.3" stroke-width="1px" visibility="hidden" x1="-379" x2="-386.3333333333333" y1="-279" y2="-281.6666666666667"/>
<ellipse cx="-396.6666666666667" cy="-284.3333333333333" fill="gray" height="6" rx="3" ry="3" stroke="#6589de" stroke-width="1px" style="cursor: pointer;" visibility="hidden" width="6"/>
<ellipse cx="-386.3333333333333" cy="-281.6666666666667" fill="gray" height="6" rx="3" ry="3" stroke="#6589de" stroke-width="1px" style="cursor: pointer;" visibility="hidden" width="6"/>
<g focusable="true" height="100" preserveAspectRatio="none" transform="translate(-748,-271) scale(1,1)" visibility="visible" width="100">
<rect fill="rgb(252,235,192)" fill-opacity="0" height="29" rx="4.35" ry="4.35" stroke="rgb(241,163,39)" stroke-opacity="0" stroke-width="1px" style="cursor: move;" width="127" x="-2" y="-3"/>
<rect fill="#feffff" height="23" rx="0" ry="0" stroke="#feffff" stroke-width="2px" style="cursor: move;" visibility="visible" width="123" x="0" y="0"/>
<text fill="#ff0000" font-family="verdana" font-size="13.4375" font-style="normal" font-weight="normal" style="cursor: move;" visibility="visible" x="3" y="3">
<tspan dy="1em" x="3">for i in range(n):</tspan>
</text>
<g focusable="true" height="17" preserveAspectRatio="none" transform="translate(03) scale(00.17)" width="0"/>
<ellipse cx="-3" cy="11.5" fill="#feffff" height="6" rx="3" ry="3" stroke="#feffff" stroke-width="1px" style="cursor: default;" visibility="hidden" width="6"/>
</g>
<line fill-opacity="0.3" stroke="#6589de" stroke-opacity="0.3" stroke-width="1px" visibility="hidden" x1="-625" x2="-598" y1="-276" y2="-282.6666666666667"/>
<line fill-opacity="0.3" stroke="#6589de" stroke-opacity="0.3" stroke-width="1px" visibility="hidden" x1="-553" x2="-574" y1="-296" y2="-289.3333333333333"/>
<ellipse cx="-598" cy="-282.6666666666667" fill="gray" height="6" rx="3" ry="3" stroke="#6589de" stroke-width="1px" style="cursor: pointer;" visibility="hidden" width="6"/>
<ellipse cx="-574" cy="-289.3333333333333" fill="gray" height="6" rx="3" ry="3" stroke="#6589de" stroke-width="1px" style="cursor: pointer;" visibility="hidden" width="6"/>
<line fill-opacity="0.3" stroke="#6589de" stroke-opacity="0.3" stroke-width="1px" visibility="hidden" x1="-625" x2="-593.6666666666666" y1="-243" y2="-238.33333333333331"/>
<line fill-opacity="0.3" stroke="#6589de" stroke-opacity="0.3" stroke-width="1px" visibility="hidden" x1="-540" x2="-565.3333333333334" y1="-229" y2="-233.66666666666669"/>
<ellipse cx="-593.6666666666666" cy="-238.33333333333331" fill="gray" height="6" rx="3" ry="3" stroke="#6589de" stroke-width="1px" style="cursor: pointer;" visibility="hidden" width="6"/>
<ellipse cx="-565.3333333333334" cy="-233.66666666666669" fill="gray" height="6" rx="3" ry="3" stroke="#6589de" stroke-width="1px" style="cursor: pointer;" visibility="hidden" width="6"/>
<path d="M-625,-276 C-601,-282.6666666666667 -577,-289.3333333333333 -553,-296" fill="#495879" fill-opacity="1" stroke="#9b74e6" stroke-dasharray="4,2" stroke-opacity="1" stroke-width="2px" style="fill: none; cursor: pointer;" visibility="visible"/>
<path d="M-625,-243 C-596.6666666666666,-238.33333333333331 -568.3333333333334,-233.66666666666669 -540,-229" fill="#495879" fill-opacity="1" stroke="#9b74e6" stroke-dasharray="4,2" stroke-opacity="1" stroke-width="2px" style="fill: none; cursor: pointer;" visibility="visible"/>
<g focusable="true" height="100" preserveAspectRatio="none" transform="translate(-816,-125) scale(1,1)" visibility="visible" width="100">
<rect fill="rgb(252,235,192)" fill-opacity="0" height="31" rx="4.6499999999999995" ry="4.6499999999999995" stroke="rgb(241,163,39)" stroke-opacity="0" stroke-width="1px" style="cursor: move;" width="152" x="-2" y="-3"/>
<rect fill="#feffff" height="25" rx="0" ry="0" stroke="#feffff" stroke-width="2px" style="cursor: move;" visibility="visible" width="148" x="0" y="0"/>
<text fill="#ff0000" font-family="verdana" font-size="13.4375" font-style="normal" font-weight="normal" style="cursor: move;" visibility="visible" x="4" y="4">
<tspan dy="1em" x="4">for i in range(m, n):</tspan>
</text>
<g focusable="true" height="17" preserveAspectRatio="none" transform="translate(04) scale(00.17)" width="0"/>
<ellipse cx="3" cy="3" fill="#feffff" height="6" rx="3" ry="3" stroke="#feffff" stroke-width="1px" style="cursor: default;" visibility="hidden" width="6"/>
</g>
<g focusable="true" height="100" preserveAspectRatio="none" transform="translate(-599,-121) scale(1,1)" visibility="visible" width="100">
<rect fill="rgb(252,235,192)" fill-opacity="0" height="42" rx="6.3" ry="6.3" stroke="rgb(241,163,39)" stroke-opacity="0" stroke-width="1px" style="cursor: move;" width="139" x="-2" y="-3"/>
<line stroke="#495879" stroke-opacity="1" stroke-width="1px" style="cursor: move;" visibility="visible" x1="0" x2="135" y1="36" y2="36"/>
<text fill="#ff0000" font-family="verdana" font-size="13.4375" font-style="normal" font-weight="normal" style="cursor: move;" visibility="visible" x="3" y="3">
<tspan dy="1em" x="3">parcourir les</tspan>
<tspan dy="1em" x="3">entiers de m à n-1</tspan>
</text>
<g focusable="true" height="15" preserveAspectRatio="none" transform="translate(03) scale(00.15)" width="0"/>
<ellipse cx="-3" cy="36" fill="rgb(224,229,239)" height="6" rx="3" ry="3" stroke="rgb(2,59,185)" stroke-width="1px" style="cursor: default;" visibility="hidden" width="6"/>
</g>
<path d="M-308,-101 C-282.6666666666667,-106.33333333333333 -257.3333333333333,-111.66666666666667 -232,-117" fill="#495879" fill-opacity="1" stroke="#9b74e6" stroke-dasharray="4,2" stroke-opacity="1" stroke-width="2px" style="fill: none; cursor: pointer;" visibility="visible"/>
<line fill-opacity="0.3" stroke="#6589de" stroke-opacity="0.3" stroke-width="1px" visibility="hidden" x1="-459" x2="-438.3333333333333" y1="-95" y2="-93"/>
<line fill-opacity="0.3" stroke="#6589de" stroke-opacity="0.3" stroke-width="1px" visibility="hidden" x1="-406" x2="-420.6666666666667" y1="-89" y2="-91"/>
<ellipse cx="-438.3333333333333" cy="-93" fill="gray" height="6" rx="3" ry="3" stroke="#6589de" stroke-width="1px" style="cursor: pointer;" visibility="hidden" width="6"/>
<ellipse cx="-420.6666666666667" cy="-91" fill="gray" height="6" rx="3" ry="3" stroke="#6589de" stroke-width="1px" style="cursor: pointer;" visibility="hidden" width="6"/>
<line fill-opacity="0.3" stroke="#6589de" stroke-opacity="0.3" stroke-width="1px" visibility="hidden" x1="-663" x2="-640.3333333333334" y1="-113" y2="-109.66666666666667"/>
<line fill-opacity="0.3" stroke="#6589de" stroke-opacity="0.3" stroke-width="1px" visibility="hidden" x1="-604" x2="-620.6666666666666" y1="-103" y2="-106.33333333333333"/>
<ellipse cx="-640.3333333333334" cy="-109.66666666666667" fill="gray" height="6" rx="3" ry="3" stroke="#6589de" stroke-width="1px" style="cursor: pointer;" visibility="hidden" width="6"/>
<ellipse cx="-620.6666666666666" cy="-106.33333333333333" fill="gray" height="6" rx="3" ry="3" stroke="#6589de" stroke-width="1px" style="cursor: pointer;" visibility="hidden" width="6"/>
<path d="M-459,-95 C-441.3333333333333,-93 -423.6666666666667,-91 -406,-89" fill="#495879" fill-opacity="1" stroke="#9b74e6" stroke-dasharray="4,2" stroke-opacity="1" stroke-width="2px" style="fill: none; cursor: pointer;" visibility="visible"/>
<path d="M-663,-113 C-643.3333333333334,-109.66666666666667 -623.6666666666666,-106.33333333333333 -604,-103" fill="#495879" fill-opacity="1" stroke="#9b74e6" stroke-dasharray="4,2" stroke-opacity="1" stroke-width="2px" style="fill: none; cursor: pointer;" visibility="visible"/>
<g focusable="true" height="100" preserveAspectRatio="none" transform="translate(52,139) scale(1,1)" visibility="visible" width="100">
<rect fill="rgb(252,235,192)" fill-opacity="0" height="27" rx="4.05" ry="4.05" stroke="rgb(241,163,39)" stroke-opacity="0" stroke-width="1px" style="cursor: move;" width="172" x="-2" y="-3"/>
<line stroke="#495879" stroke-opacity="1" stroke-width="1px" style="cursor: move;" visibility="visible" x1="0" x2="168" y1="21" y2="21"/>
<text fill="#38761d" font-family="verdana" font-size="10.75" font-style="normal" font-weight="normal" style="cursor: move;" visibility="visible" x="4" y="4">
<tspan dy="1em" x="4">Pour parcourir un dictionnaire</tspan>
</text>
<g focusable="true" height="13" preserveAspectRatio="none" transform="translate(04) scale(00.13)" width="0"/>
<ellipse cx="3" cy="3" fill="rgb(224,229,239)" height="6" rx="3" ry="3" stroke="rgb(2,59,185)" stroke-width="1px" style="cursor: default;" visibility="hidden" width="6"/>
</g>
<g focusable="true" height="100" preserveAspectRatio="none" transform="translate(-251,135) scale(1,1)" visibility="visible" width="100">
<rect fill="rgb(252,235,192)" fill-opacity="0" height="27" rx="4.05" ry="4.05" stroke="rgb(241,163,39)" stroke-opacity="0" stroke-width="1px" style="cursor: move;" width="138" x="-2" y="-3"/>
<line stroke="#495879" stroke-opacity="1" stroke-width="1px" style="cursor: move;" visibility="visible" x1="0" x2="134" y1="21" y2="21"/>
<text fill="#f1a327" font-family="verdana" font-size="10.75" font-style="normal" font-weight="normal" style="cursor: move;" visibility="visible" x="4" y="4">
<tspan dy="1em" x="4">Pour parcourir une liste</tspan>
</text>
<g focusable="true" height="13" preserveAspectRatio="none" transform="translate(04) scale(00.13)" width="0"/>
<ellipse cx="3" cy="3" fill="rgb(224,229,239)" height="6" rx="3" ry="3" stroke="rgb(2,59,185)" stroke-width="1px" style="cursor: default;" visibility="hidden" width="6"/>
</g>
<path d="M-169,130 C-129.66666666666666,96 -90.33333333333334,62.00000000000001 -51,28" fill="#495879" fill-opacity="1" stroke="#9b74e6" stroke-dasharray="4,2" stroke-opacity="1" stroke-width="2px" style="fill: none; cursor: pointer;" visibility="visible"/>
<line fill-opacity="0.3" stroke="#6589de" stroke-opacity="0.3" stroke-width="1px" visibility="hidden" x1="-169" x2="-126.66666666666666" y1="130" y2="96"/>
<line fill-opacity="0.3" stroke="#6589de" stroke-opacity="0.3" stroke-width="1px" visibility="hidden" x1="-51" x2="-87.33333333333334" y1="28" y2="62.00000000000001"/>
<ellipse cx="-126.66666666666666" cy="96" fill="gray" height="6" rx="3" ry="3" stroke="#6589de" stroke-width="1px" style="cursor: pointer;" visibility="hidden" width="6"/>
<ellipse cx="-87.33333333333334" cy="62.00000000000001" fill="gray" height="6" rx="3" ry="3" stroke="#6589de" stroke-width="1px" style="cursor: pointer;" visibility="hidden" width="6"/>
<path d="M127,134 C99.33333333333333,98.66666666666666 71.66666666666667,63.333333333333336 44,28" fill="#495879" fill-opacity="1" stroke="#9b74e6" stroke-dasharray="4,2" stroke-opacity="1" stroke-width="2px" style="fill: none; cursor: pointer;" visibility="visible"/>
<line fill-opacity="0.3" stroke="#6589de" stroke-opacity="0.3" stroke-width="1px" visibility="hidden" x1="127" x2="102.33333333333333" y1="134" y2="98.66666666666666"/>
<line fill-opacity="0.3" stroke="#6589de" stroke-opacity="0.3" stroke-width="1px" visibility="hidden" x1="44" x2="74.66666666666667" y1="28" y2="63.333333333333336"/>
<ellipse cx="102.33333333333333" cy="98.66666666666666" fill="gray" height="6" rx="3" ry="3" stroke="#6589de" stroke-width="1px" style="cursor: pointer;" visibility="hidden" width="6"/>
<ellipse cx="74.66666666666667" cy="63.333333333333336" fill="gray" height="6" rx="3" ry="3" stroke="#6589de" stroke-width="1px" style="cursor: pointer;" visibility="hidden" width="6"/>
<path d="M368,-295 C341.6666666666667,-281.33333333333337 315.3333333333333,-267.66666666666663 289,-254" fill="#495879" fill-opacity="1" stroke="#9b74e6" stroke-dasharray="4,2" stroke-opacity="1" stroke-width="2px" style="fill: none; cursor: pointer;" visibility="visible"/>
<path d="M379,-213 C361.6666666666667,-216.33333333333334 344.3333333333333,-219.66666666666666 327,-223" fill="#495879" fill-opacity="1" stroke="#9b74e6" stroke-dasharray="4,2" stroke-opacity="1" stroke-width="2px" style="fill: none; cursor: pointer;" visibility="visible"/>
<rect fill="#CC0033" fill-opacity="0.4" height="6" rx="0" ry="0" stroke="#FF9933" stroke-opacity="0.4" stroke-width="1px" visibility="hidden" width="50" x="541" y="-136"/>
<path d="M390,-4 C360.3333333333333,-11.666666666666671 330.6666666666667,-19.33333333333333 301,-27" fill="#495879" fill-opacity="1" stroke="#9b74e6" stroke-dasharray="4,2" stroke-opacity="1" stroke-width="2px" style="fill: none; cursor: pointer;" visibility="visible"/>
</svg>
